# xmcd
# 
# Track frame offsets:
#     150
#     26362
#     48885
#     78740
#     98012
#     116070
#     139937
#     161732
#     182205
#     198362
#     220537
#     238315
#     257217
# 
# Disc length: 3699
# 
# Revision: 7
# Processed by: cddbd v1.5.2PL0 Copyright (c) Steve Scherf et al.
# Submitted via: fre:ac v1.0.17
# 
DISCID=b60e710d
DTITLE=BB King - Deuces Wild
DYEAR=1997
DGENRE=Blues
TTITLE0=If You Love Me
TTITLE1=The Thrill Is Gone
TTITLE2=Rock Me Baby
TTITLE3=Please Send Me Someone To Love
TTITLE4=Baby I Love You
TTITLE5=Ain't Nobody Home
TTITLE6=There Must Be A Better World Somewhere
TTITLE7=Confessin' The Blues
TTITLE8=Paying The Cost To Be The Boss
TTITLE9=Dangerous Mood
TTITLE10=Keep It Coming
TTITLE11=Crying Won't Help You Babe
TTITLE12=Night Life
EXTD=
EXTT0=
EXTT1=
EXTT2=
EXTT3=
EXTT4=
EXTT5=
EXTT6=
EXTT7=
EXTT8=
EXTT9=
EXTT10=
EXTT11=
EXTT12=
PLAYORDER=
